<mxfile host="app.diagrams.net" modified="2024-04-25T12:46:18.764Z" agent="Mozilla/5.0 (Macintosh; Intel Mac OS X 10_15_7) AppleWebKit/537.36 (KHTML, like Gecko) Chrome/123.0.0.0 Safari/537.36" etag="lVgyzKHJcfCM1iDuA7Oa" version="24.2.3" type="github">
  <diagram name="Page-1" id="7Ib5K2vnKe7W7gyEQEI1">
    <mxGraphModel dx="2249" dy="1232" grid="1" gridSize="10" guides="1" tooltips="1" connect="1" arrows="1" fold="1" page="1" pageScale="1" pageWidth="850" pageHeight="1100" math="0" shadow="0">
      <root>
        <mxCell id="0" />
        <mxCell id="1" parent="0" />
        <mxCell id="fd3qkdTBJXq_yaIZCA9x-8" value="PROD Env." style="points=[[0,0],[0.25,0],[0.5,0],[0.75,0],[1,0],[1,0.25],[1,0.5],[1,0.75],[1,1],[0.75,1],[0.5,1],[0.25,1],[0,1],[0,0.75],[0,0.5],[0,0.25]];outlineConnect=0;gradientColor=none;html=1;whiteSpace=wrap;fontSize=12;fontStyle=0;container=1;pointerEvents=0;collapsible=0;recursiveResize=0;shape=mxgraph.aws4.group;grIcon=mxgraph.aws4.group_account;strokeColor=#CD2264;fillColor=default;verticalAlign=top;align=left;spacingLeft=30;fontColor=#CD2264;dashed=0;" vertex="1" parent="1">
          <mxGeometry x="240" y="130" width="110" height="130" as="geometry" />
        </mxCell>
        <mxCell id="fd3qkdTBJXq_yaIZCA9x-7" value="PROD Env." style="points=[[0,0],[0.25,0],[0.5,0],[0.75,0],[1,0],[1,0.25],[1,0.5],[1,0.75],[1,1],[0.75,1],[0.5,1],[0.25,1],[0,1],[0,0.75],[0,0.5],[0,0.25]];outlineConnect=0;gradientColor=none;html=1;whiteSpace=wrap;fontSize=12;fontStyle=0;container=1;pointerEvents=0;collapsible=0;recursiveResize=0;shape=mxgraph.aws4.group;grIcon=mxgraph.aws4.group_account;strokeColor=#CD2264;fillColor=default;verticalAlign=top;align=left;spacingLeft=30;fontColor=#CD2264;dashed=0;" vertex="1" parent="1">
          <mxGeometry x="230" y="120" width="110" height="130" as="geometry" />
        </mxCell>
        <mxCell id="fd3qkdTBJXq_yaIZCA9x-1" value="AWS Landing Zone" style="points=[[0,0],[0.25,0],[0.5,0],[0.75,0],[1,0],[1,0.25],[1,0.5],[1,0.75],[1,1],[0.75,1],[0.5,1],[0.25,1],[0,1],[0,0.75],[0,0.5],[0,0.25]];outlineConnect=0;gradientColor=none;html=1;whiteSpace=wrap;fontSize=12;fontStyle=0;container=1;pointerEvents=0;collapsible=0;recursiveResize=0;shape=mxgraph.aws4.group;grIcon=mxgraph.aws4.group_aws_cloud_alt;strokeColor=#232F3E;fillColor=none;verticalAlign=top;align=left;spacingLeft=30;fontColor=#232F3E;dashed=0;" vertex="1" parent="1">
          <mxGeometry x="40" y="40" width="330" height="250" as="geometry" />
        </mxCell>
        <mxCell id="fd3qkdTBJXq_yaIZCA9x-5" value="" style="points=[[0,0],[0.25,0],[0.5,0],[0.75,0],[1,0],[1,0.25],[1,0.5],[1,0.75],[1,1],[0.75,1],[0.5,1],[0.25,1],[0,1],[0,0.75],[0,0.5],[0,0.25]];outlineConnect=0;gradientColor=none;html=1;whiteSpace=wrap;fontSize=12;fontStyle=0;container=1;pointerEvents=0;collapsible=0;recursiveResize=0;shape=mxgraph.aws4.group;grIcon=mxgraph.aws4.group_account;strokeColor=#CD2264;fillColor=default;verticalAlign=top;align=left;spacingLeft=30;fontColor=#CD2264;dashed=0;" vertex="1" parent="fd3qkdTBJXq_yaIZCA9x-1">
          <mxGeometry x="40" y="90" width="110" height="50" as="geometry" />
        </mxCell>
        <mxCell id="fd3qkdTBJXq_yaIZCA9x-4" value="&lt;div&gt;&lt;br&gt;&lt;/div&gt;&lt;div&gt;&lt;br&gt;&lt;/div&gt;" style="points=[[0,0],[0.25,0],[0.5,0],[0.75,0],[1,0],[1,0.25],[1,0.5],[1,0.75],[1,1],[0.75,1],[0.5,1],[0.25,1],[0,1],[0,0.75],[0,0.5],[0,0.25]];outlineConnect=0;gradientColor=none;html=1;whiteSpace=wrap;fontSize=12;fontStyle=0;container=1;pointerEvents=0;collapsible=0;recursiveResize=0;shape=mxgraph.aws4.group;grIcon=mxgraph.aws4.group_account;strokeColor=#CD2264;fillColor=default;verticalAlign=top;align=left;spacingLeft=30;fontColor=#CD2264;dashed=0;" vertex="1" parent="fd3qkdTBJXq_yaIZCA9x-1">
          <mxGeometry x="30" y="80" width="110" height="50" as="geometry" />
        </mxCell>
        <mxCell id="fd3qkdTBJXq_yaIZCA9x-2" value="Core Account" style="points=[[0,0],[0.25,0],[0.5,0],[0.75,0],[1,0],[1,0.25],[1,0.5],[1,0.75],[1,1],[0.75,1],[0.5,1],[0.25,1],[0,1],[0,0.75],[0,0.5],[0,0.25]];outlineConnect=0;gradientColor=none;html=1;whiteSpace=wrap;fontSize=12;fontStyle=0;container=1;pointerEvents=0;collapsible=0;recursiveResize=0;shape=mxgraph.aws4.group;grIcon=mxgraph.aws4.group_account;strokeColor=#CD2264;fillColor=default;verticalAlign=top;align=left;spacingLeft=30;fontColor=#CD2264;dashed=0;" vertex="1" parent="fd3qkdTBJXq_yaIZCA9x-1">
          <mxGeometry x="20" y="70" width="110" height="50" as="geometry" />
        </mxCell>
        <mxCell id="fd3qkdTBJXq_yaIZCA9x-6" value="PROD Account" style="points=[[0,0],[0.25,0],[0.5,0],[0.75,0],[1,0],[1,0.25],[1,0.5],[1,0.75],[1,1],[0.75,1],[0.5,1],[0.25,1],[0,1],[0,0.75],[0,0.5],[0,0.25]];outlineConnect=0;gradientColor=none;html=1;whiteSpace=wrap;fontSize=12;fontStyle=0;container=1;pointerEvents=0;collapsible=0;recursiveResize=0;shape=mxgraph.aws4.group;grIcon=mxgraph.aws4.group_account;strokeColor=#CD2264;fillColor=default;verticalAlign=top;align=left;spacingLeft=30;fontColor=#CD2264;dashed=0;" vertex="1" parent="fd3qkdTBJXq_yaIZCA9x-1">
          <mxGeometry x="180" y="70" width="110" height="130" as="geometry" />
        </mxCell>
        <mxCell id="fd3qkdTBJXq_yaIZCA9x-19" value="" style="shape=flexArrow;endArrow=classic;html=1;rounded=0;fillColor=#009999;strokeColor=none;" edge="1" parent="fd3qkdTBJXq_yaIZCA9x-1">
          <mxGeometry width="50" height="50" relative="1" as="geometry">
            <mxPoint x="234.9000000000001" y="271" as="sourcePoint" />
            <mxPoint x="234.5" y="151" as="targetPoint" />
          </mxGeometry>
        </mxCell>
        <mxCell id="fd3qkdTBJXq_yaIZCA9x-10" value="" style="verticalLabelPosition=bottom;verticalAlign=top;html=1;shape=mxgraph.basic.rect;fillColor2=none;strokeWidth=1;size=20;indent=5;strokeColor=#FF3621;" vertex="1" parent="1">
          <mxGeometry x="400" y="40" width="170" height="250" as="geometry" />
        </mxCell>
        <mxCell id="fd3qkdTBJXq_yaIZCA9x-9" value="" style="shape=image;verticalLabelPosition=bottom;labelBackgroundColor=default;verticalAlign=top;aspect=fixed;imageAspect=0;image=data:image/svg+xml,PHN2ZyB4bWxuczp4bGluaz0iaHR0cDovL3d3dy53My5vcmcvMTk5OS94bGluayIgeG1sbnM9Imh0dHA6Ly93d3cudzMub3JnLzIwMDAvc3ZnIiB2ZXJzaW9uPSIxLjEiIHZpZXdCb3g9IjAgMCAzOTUgNDI4IiBoZWlnaHQ9IjQyOHB4IiB3aWR0aD0iMzk1cHgiPiYjeGE7ICAgIDx0aXRsZT5kYi1uYXYtbG9nby1zdGFja2VkLXdoaXRlLWRlc2t0b3A8L3RpdGxlPiYjeGE7ICAgIDxnIGZpbGwtcnVsZT0iZXZlbm9kZCIgZmlsbD0ibm9uZSIgc3Ryb2tlLXdpZHRoPSIxIiBzdHJva2U9Im5vbmUiIGlkPSJQYWdlLTEiPiYjeGE7ICAgICAgICA8ZyBmaWxsLXJ1bGU9Im5vbnplcm8iIGZpbGw9IiNGRjM2MjEiIGlkPSJkYi1uYXYtbG9nby1zdGFja2VkLXdoaXRlLWRlc2t0b3AiPiYjeGE7ICAgICAgICAgICAgPHBvbHlnb24gcG9pbnRzPSIzNzQuMjA5NzA4IDE3Ni4yMDEwOTEgMTk3LjIwMjQ5MSAyNzYuMjA2MDEyIDguOTA5NzIxMyAxNjkuNjUzMDE1IDAgMTc0LjQxNDQ4NCAwIDI1MS44MDAzMTcgMTk3LjIwMjQ5MSAzNjMuNzExNzI2IDM3NC4yMDk3MDggMjYzLjcwNTM5NyAzNzQuMjA5NzA4IDMwNC43NzkwNDggMTk3LjIwMjQ5MSA0MDQuNzg1Mzc2IDguOTA5NzIxMyAyOTguMjMwOTcyIDAgMzAyLjk5Mzg0OSAwIDMxNi4wODk5OTkgMTk3LjIwMjQ5MSA0MjggMzk1IDMxNi4wODk5OTkgMzk1IDIzOC43MDQxNjYgMzg2LjA5MDI3OSAyMzMuOTQxMjkgMTk3LjIwMjQ5MSAzNDAuNDk1Njk0IDIwLjc4ODg3ODYgMjQwLjQ4OTM2NSAyMC43ODg4Nzg2IDIwMC4wMTEyNSAxOTcuMjAyNDkxIDI5OS40MjIwNDMgMzk1IDE4Ny41MTA2MzUgMzk1IDExMS4zMTU4NzMgMzg0LjkwMTY1NiAxMDUuOTU4NDQ2IDE5Ny4yMDI0OTEgMjExLjkxNjMyOSAzMC4yOTIyMDQ0IDExNy4yNjg1NTMgMTk3LjIwMjQ5MSAyMy4yMTU2MDkxIDMzNS4wMDYzNjkgMTAwLjYwMTAyIDM0Ny40ODA1NDQgOTQuMDUyOTQ0NCAzNDcuNDgwNTQ0IDg0LjUyODU5OTIgMTk3LjIwMjQ5MSAwIDAgMTExLjMxNTg3MyAwIDEyMy4yMjEzNzUgMTk3LjIwMjQ5MSAyMzUuMTMyMzYxIDM3NC4yMDk3MDggMTM1LjEyNjczNiIgaWQ9IlBhdGgiLz4mI3hhOyAgICAgICAgPC9nPiYjeGE7ICAgIDwvZz4mI3hhOzwvc3ZnPg==;" vertex="1" parent="1">
          <mxGeometry x="400" y="40" width="23.08" height="25" as="geometry" />
        </mxCell>
        <mxCell id="fd3qkdTBJXq_yaIZCA9x-11" value="Datab&lt;span style=&quot;background-color: initial;&quot;&gt;ricks Account&lt;/span&gt;" style="text;html=1;align=center;verticalAlign=middle;whiteSpace=wrap;rounded=0;fontColor=#FF3621;" vertex="1" parent="1">
          <mxGeometry x="430" y="37.5" width="110" height="30" as="geometry" />
        </mxCell>
        <mxCell id="fd3qkdTBJXq_yaIZCA9x-16" value="" style="rounded=0;whiteSpace=wrap;html=1;" vertex="1" parent="1">
          <mxGeometry x="440" y="130" width="110" height="130" as="geometry" />
        </mxCell>
        <mxCell id="fd3qkdTBJXq_yaIZCA9x-15" value="" style="rounded=0;whiteSpace=wrap;html=1;" vertex="1" parent="1">
          <mxGeometry x="430" y="120" width="110" height="130" as="geometry" />
        </mxCell>
        <mxCell id="fd3qkdTBJXq_yaIZCA9x-12" value="" style="rounded=0;whiteSpace=wrap;html=1;" vertex="1" parent="1">
          <mxGeometry x="420" y="110" width="110" height="130" as="geometry" />
        </mxCell>
        <mxCell id="fd3qkdTBJXq_yaIZCA9x-14" value="PROD&lt;div&gt;Workspace&lt;/div&gt;" style="text;html=1;align=left;verticalAlign=middle;whiteSpace=wrap;rounded=0;" vertex="1" parent="1">
          <mxGeometry x="424" y="115" width="110" height="30" as="geometry" />
        </mxCell>
        <mxCell id="fd3qkdTBJXq_yaIZCA9x-17" value="Third party systems" style="rounded=0;whiteSpace=wrap;html=1;" vertex="1" parent="1">
          <mxGeometry x="220" y="310" width="110" height="60" as="geometry" />
        </mxCell>
        <mxCell id="fd3qkdTBJXq_yaIZCA9x-21" value="" style="rounded=0;whiteSpace=wrap;html=1;strokeColor=#29b5e8;" vertex="1" parent="1">
          <mxGeometry x="600" y="40" width="190" height="250" as="geometry" />
        </mxCell>
        <mxCell id="fd3qkdTBJXq_yaIZCA9x-22" value="" style="shape=image;verticalLabelPosition=bottom;labelBackgroundColor=default;verticalAlign=top;aspect=fixed;imageAspect=0;image=data:image/svg+xml,PHN2ZyB4bWxucz0iaHR0cDovL3d3dy53My5vcmcvMjAwMC9zdmciIHZpZXdCb3g9IjAgMCAxNDYuMzYgMTM5LjE2IiBkYXRhLW5hbWU9IkxheWVyIDEiIGlkPSJMYXllcl8xIj48ZGVmcz48c3R5bGU+LmNscy0xe2ZpbGw6IzI5YjVlODtmaWxsLXJ1bGU6ZXZlbm9kZDt9PC9zdHlsZT48L2RlZnM+PHBhdGggZD0iTTEzNC44MSw2MC4xbC0xNi40Nyw5LjQ5TDEzNC44MSw3OWE4LjY1LDguNjUsMCwxLDEtOC42NywxNWwtMjkuNTEtMTdhOC42OCw4LjY4LDAsMCwxLTQuMzMtNy43NSw4LjQ4LDguNDgsMCwwLDEsLjMxLTIsOC42OCw4LjY4LDAsMCwxLDQtNS4xOWwyOS41MS0xNi45NEE4LjY5LDguNjksMCwwLDEsMTM4LDQ4LjMxLDguNTgsOC41OCwwLDAsMSwxMzQuODEsNjAuMVptLTE1LjU5LDQ2TDg5LjcyLDg5LjEzYTguNzIsOC43MiwwLDAsMC0xMy4wNiw3LjQ4djMzLjlhOC42OSw4LjY5LDAsMCwwLDE3LjM3LDB2LTE5TDExMC41NCwxMjFhOC42Niw4LjY2LDAsMSwwLDguNjgtMTVabS0zNC0zMy4xNkw3Mi45Miw4NS4wOWEyLjQ0LDIuNDQsMCwwLDEtMS41NC42NUg2Ny43N2EyLjUxLDIuNTEsMCwwLDEtMS41NC0uNjVMNTQsNzIuOWEyLjQ1LDIuNDUsMCwwLDEtLjY0LTEuNTJ2LTMuNkEyLjUsMi41LDAsMCwxLDU0LDY2LjI1TDY2LjIzLDU0LjA2YTIuNSwyLjUsMCwwLDEsMS41NC0uNjRoMy42MWEyLjQ1LDIuNDUsMCwwLDEsMS41NC42NEw4NS4xOCw2Ni4yNWEyLjQ5LDIuNDksMCwwLDEsLjYzLDEuNTN2My42QTIuNDQsMi40NCwwLDAsMSw4NS4xOCw3Mi45Wm0tOS44LTMuMzhBMi41OSwyLjU5LDAsMCwwLDc0LjczLDY4bC0zLjU1LTMuNTFhMi41MSwyLjUxLDAsMCwwLTEuNTQtLjY0aC0uMTNhMi40NiwyLjQ2LDAsMCwwLTEuNTMuNjRMNjQuNDMsNjhhMi41MSwyLjUxLDAsMCwwLS42MywxLjU1di4xM2EyLjQxLDIuNDEsMCwwLDAsLjYzLDEuNTJMNjgsNzQuN2EyLjQ4LDIuNDgsMCwwLDAsMS41My42NGguMTNhMi41MSwyLjUxLDAsMCwwLDEuNTQtLjY0bDMuNTUtMy41M2EyLjQ5LDIuNDksMCwwLDAsLjY1LTEuNTJaTTE5LjkzLDMzLjA4LDQ5LjQ0LDUwYTguNzMsOC43MywwLDAsMCwxMy4wNy03LjQ5VjguNjRhOC42OSw4LjY5LDAsMCwwLTE3LjM3LDB2MTlsLTE2LjUzLTkuNWE4LjY1LDguNjUsMCwxLDAtOC42OCwxNVpNODQuNjksNTEuMTZhOC42NCw4LjY0LDAsMCwwLDUtMS4xM2wyOS41LTE3YTguNjUsOC42NSwwLDEsMC04LjY4LTE1TDk0LDI3LjYxdi0xOWE4LjY5LDguNjksMCwwLDAtMTcuMzcsMHYzMy45QTguNjYsOC42NiwwLDAsMCw4NC42OSw1MS4xNlpNNTQuNDgsODhhOC41OCw4LjU4LDAsMCwwLTUsMS4xM0wxOS45MywxMDYuMDZhOC42Niw4LjY2LDAsMSwwLDguNjgsMTVsMTYuNTMtOS40OXYxOWE4LjY5LDguNjksMCwwLDAsMTcuMzcsMFY5Ni42MUE4LjY1LDguNjUsMCwwLDAsNTQuNDgsODhabS04LTE1Ljg3YTguNjEsOC42MSwwLDAsMC00LTEwTDEzLDQ1LjE0QTguNjksOC42OSwwLDAsMCwxLjE3LDQ4LjMxLDguNTksOC41OSwwLDAsMCw0LjM1LDYwLjFsMTYuNDcsOS40OUw0LjM1LDc5QTguNjUsOC42NSwwLDEsMCwxMyw5NGwyOS40OC0xN0E4LjU5LDguNTksMCwwLDAsNDYuNDcsNzIuMTNabTkzLjE1LTU2LjIySDEzOC4zdjEuNjNoMS4zMmMuNjEsMCwxLS4yOCwxLS44UzE0MC4yNiwxNS45MSwxMzkuNjIsMTUuOTFabS0yLjk0LTEuNWgzYzEuNjIsMCwyLjcuODksMi43LDIuMjdhMi4xNiwyLjE2LDAsMCwxLTEuMDgsMS45bDEuMTcsMS42OHYuMzRoLTEuNjlMMTM5LjYyLDE5SDEzOC4zVjIwLjZoLTEuNjJabTguMywzLjIyYTUuNDgsNS40OCwwLDAsMC01LjU4LTUuODNjLTMuMzEsMC01LjUxLDIuMzktNS41MSw1LjgzLDAsMy4yOCwyLjIsNS44Miw1LjUxLDUuODJBNS40Nyw1LjQ3LDAsMCwwLDE0NSwxNy42M1ptMS4zOCwwYzAsMy44OS0yLjYsNy4xNC03LDcuMTRzLTYuODktMy4yOC02Ljg5LTcuMTQsMi41Ny03LjE0LDYuODktNy4xNFMxNDYuMzYsMTMuNzMsMTQ2LjM2LDE3LjYzWiIgY2xhc3M9ImNscy0xIi8+PC9zdmc+;" vertex="1" parent="1">
          <mxGeometry x="600" y="40.5" width="26.26" height="25" as="geometry" />
        </mxCell>
        <mxCell id="fd3qkdTBJXq_yaIZCA9x-23" value="Snowflake Organisation" style="text;html=1;align=left;verticalAlign=middle;whiteSpace=wrap;rounded=0;fontColor=#29b5e8;" vertex="1" parent="1">
          <mxGeometry x="632" y="38" width="140" height="30" as="geometry" />
        </mxCell>
        <mxCell id="fd3qkdTBJXq_yaIZCA9x-24" value="" style="rounded=0;whiteSpace=wrap;html=1;strokeColor=#29b5e8;" vertex="1" parent="1">
          <mxGeometry x="610" y="80" width="170" height="200" as="geometry" />
        </mxCell>
        <mxCell id="fd3qkdTBJXq_yaIZCA9x-25" value="Snowflake Account" style="text;html=1;align=left;verticalAlign=middle;whiteSpace=wrap;rounded=0;fontColor=#29b5e8;" vertex="1" parent="1">
          <mxGeometry x="620" y="80" width="140" height="30" as="geometry" />
        </mxCell>
        <mxCell id="fd3qkdTBJXq_yaIZCA9x-30" value="" style="rounded=0;whiteSpace=wrap;html=1;strokeColor=#29b5e8;" vertex="1" parent="1">
          <mxGeometry x="645" y="130" width="110" height="130" as="geometry" />
        </mxCell>
        <mxCell id="fd3qkdTBJXq_yaIZCA9x-29" value="" style="rounded=0;whiteSpace=wrap;html=1;strokeColor=#29b5e8;" vertex="1" parent="1">
          <mxGeometry x="635" y="120" width="110" height="130" as="geometry" />
        </mxCell>
        <mxCell id="fd3qkdTBJXq_yaIZCA9x-27" value="" style="rounded=0;whiteSpace=wrap;html=1;strokeColor=#29b5e8;" vertex="1" parent="1">
          <mxGeometry x="625" y="110" width="110" height="130" as="geometry" />
        </mxCell>
        <mxCell id="fd3qkdTBJXq_yaIZCA9x-28" value="PROD Databases" style="text;html=1;align=left;verticalAlign=middle;whiteSpace=wrap;rounded=0;fontColor=#29b5e8;" vertex="1" parent="1">
          <mxGeometry x="630.74" y="110" width="110" height="30" as="geometry" />
        </mxCell>
        <mxCell id="fd3qkdTBJXq_yaIZCA9x-20" value="" style="shape=flexArrow;endArrow=classic;html=1;rounded=0;fillColor=#009999;strokeColor=none;" edge="1" parent="1">
          <mxGeometry width="50" height="50" relative="1" as="geometry">
            <mxPoint x="320.0000000000001" y="174.5" as="sourcePoint" />
            <mxPoint x="650" y="174.5" as="targetPoint" />
          </mxGeometry>
        </mxCell>
        <mxCell id="fd3qkdTBJXq_yaIZCA9x-26" value="" style="shape=cylinder3;whiteSpace=wrap;html=1;boundedLbl=1;backgroundOutline=1;size=5.639198303222656;strokeColor=#29b5e8;" vertex="1" parent="1">
          <mxGeometry x="660" y="140" width="30" height="40" as="geometry" />
        </mxCell>
        <mxCell id="fd3qkdTBJXq_yaIZCA9x-31" value="" style="shape=cylinder3;whiteSpace=wrap;html=1;boundedLbl=1;backgroundOutline=1;size=5.639198303222656;strokeColor=#29b5e8;" vertex="1" parent="1">
          <mxGeometry x="680" y="160" width="30" height="40" as="geometry" />
        </mxCell>
        <mxCell id="fd3qkdTBJXq_yaIZCA9x-32" value="" style="shape=cylinder3;whiteSpace=wrap;html=1;boundedLbl=1;backgroundOutline=1;size=5.639198303222656;strokeColor=#29b5e8;" vertex="1" parent="1">
          <mxGeometry x="665" y="190" width="30" height="40" as="geometry" />
        </mxCell>
        <mxCell id="fd3qkdTBJXq_yaIZCA9x-33" value="PROD Env." style="points=[[0,0],[0.25,0],[0.5,0],[0.75,0],[1,0],[1,0.25],[1,0.5],[1,0.75],[1,1],[0.75,1],[0.5,1],[0.25,1],[0,1],[0,0.75],[0,0.5],[0,0.25]];outlineConnect=0;gradientColor=none;html=1;whiteSpace=wrap;fontSize=12;fontStyle=0;container=1;pointerEvents=0;collapsible=0;recursiveResize=0;shape=mxgraph.aws4.group;grIcon=mxgraph.aws4.group_account;strokeColor=#CD2264;fillColor=default;verticalAlign=top;align=left;spacingLeft=30;fontColor=#CD2264;dashed=0;" vertex="1" parent="1">
          <mxGeometry x="240" y="592.5" width="110" height="130" as="geometry" />
        </mxCell>
        <mxCell id="fd3qkdTBJXq_yaIZCA9x-34" value="PROD Env." style="points=[[0,0],[0.25,0],[0.5,0],[0.75,0],[1,0],[1,0.25],[1,0.5],[1,0.75],[1,1],[0.75,1],[0.5,1],[0.25,1],[0,1],[0,0.75],[0,0.5],[0,0.25]];outlineConnect=0;gradientColor=none;html=1;whiteSpace=wrap;fontSize=12;fontStyle=0;container=1;pointerEvents=0;collapsible=0;recursiveResize=0;shape=mxgraph.aws4.group;grIcon=mxgraph.aws4.group_account;strokeColor=#CD2264;fillColor=default;verticalAlign=top;align=left;spacingLeft=30;fontColor=#CD2264;dashed=0;" vertex="1" parent="1">
          <mxGeometry x="230" y="582.5" width="110" height="130" as="geometry" />
        </mxCell>
        <mxCell id="fd3qkdTBJXq_yaIZCA9x-35" value="AWS Landing Zone" style="points=[[0,0],[0.25,0],[0.5,0],[0.75,0],[1,0],[1,0.25],[1,0.5],[1,0.75],[1,1],[0.75,1],[0.5,1],[0.25,1],[0,1],[0,0.75],[0,0.5],[0,0.25]];outlineConnect=0;gradientColor=none;html=1;whiteSpace=wrap;fontSize=12;fontStyle=0;container=1;pointerEvents=0;collapsible=0;recursiveResize=0;shape=mxgraph.aws4.group;grIcon=mxgraph.aws4.group_aws_cloud_alt;strokeColor=#232F3E;fillColor=none;verticalAlign=top;align=left;spacingLeft=30;fontColor=#232F3E;dashed=0;" vertex="1" parent="1">
          <mxGeometry x="40" y="502.5" width="330" height="467.5" as="geometry" />
        </mxCell>
        <mxCell id="fd3qkdTBJXq_yaIZCA9x-36" value="" style="points=[[0,0],[0.25,0],[0.5,0],[0.75,0],[1,0],[1,0.25],[1,0.5],[1,0.75],[1,1],[0.75,1],[0.5,1],[0.25,1],[0,1],[0,0.75],[0,0.5],[0,0.25]];outlineConnect=0;gradientColor=none;html=1;whiteSpace=wrap;fontSize=12;fontStyle=0;container=1;pointerEvents=0;collapsible=0;recursiveResize=0;shape=mxgraph.aws4.group;grIcon=mxgraph.aws4.group_account;strokeColor=#CD2264;fillColor=default;verticalAlign=top;align=left;spacingLeft=30;fontColor=#CD2264;dashed=0;" vertex="1" parent="fd3qkdTBJXq_yaIZCA9x-35">
          <mxGeometry x="40" y="90" width="110" height="50" as="geometry" />
        </mxCell>
        <mxCell id="fd3qkdTBJXq_yaIZCA9x-37" value="&lt;div&gt;&lt;br&gt;&lt;/div&gt;&lt;div&gt;&lt;br&gt;&lt;/div&gt;" style="points=[[0,0],[0.25,0],[0.5,0],[0.75,0],[1,0],[1,0.25],[1,0.5],[1,0.75],[1,1],[0.75,1],[0.5,1],[0.25,1],[0,1],[0,0.75],[0,0.5],[0,0.25]];outlineConnect=0;gradientColor=none;html=1;whiteSpace=wrap;fontSize=12;fontStyle=0;container=1;pointerEvents=0;collapsible=0;recursiveResize=0;shape=mxgraph.aws4.group;grIcon=mxgraph.aws4.group_account;strokeColor=#CD2264;fillColor=default;verticalAlign=top;align=left;spacingLeft=30;fontColor=#CD2264;dashed=0;" vertex="1" parent="fd3qkdTBJXq_yaIZCA9x-35">
          <mxGeometry x="30" y="80" width="110" height="50" as="geometry" />
        </mxCell>
        <mxCell id="fd3qkdTBJXq_yaIZCA9x-38" value="Core Account" style="points=[[0,0],[0.25,0],[0.5,0],[0.75,0],[1,0],[1,0.25],[1,0.5],[1,0.75],[1,1],[0.75,1],[0.5,1],[0.25,1],[0,1],[0,0.75],[0,0.5],[0,0.25]];outlineConnect=0;gradientColor=none;html=1;whiteSpace=wrap;fontSize=12;fontStyle=0;container=1;pointerEvents=0;collapsible=0;recursiveResize=0;shape=mxgraph.aws4.group;grIcon=mxgraph.aws4.group_account;strokeColor=#CD2264;fillColor=default;verticalAlign=top;align=left;spacingLeft=30;fontColor=#CD2264;dashed=0;" vertex="1" parent="fd3qkdTBJXq_yaIZCA9x-35">
          <mxGeometry x="20" y="70" width="110" height="50" as="geometry" />
        </mxCell>
        <mxCell id="fd3qkdTBJXq_yaIZCA9x-39" value="PROD&lt;div&gt;B-FLEXION&lt;div&gt;Account&lt;/div&gt;&lt;/div&gt;" style="points=[[0,0],[0.25,0],[0.5,0],[0.75,0],[1,0],[1,0.25],[1,0.5],[1,0.75],[1,1],[0.75,1],[0.5,1],[0.25,1],[0,1],[0,0.75],[0,0.5],[0,0.25]];outlineConnect=0;gradientColor=none;html=1;whiteSpace=wrap;fontSize=12;fontStyle=0;container=1;pointerEvents=0;collapsible=0;recursiveResize=0;shape=mxgraph.aws4.group;grIcon=mxgraph.aws4.group_account;strokeColor=#CD2264;fillColor=default;verticalAlign=top;align=left;spacingLeft=30;fontColor=#CD2264;dashed=0;" vertex="1" parent="fd3qkdTBJXq_yaIZCA9x-35">
          <mxGeometry x="180" y="70" width="110" height="130" as="geometry" />
        </mxCell>
        <mxCell id="fd3qkdTBJXq_yaIZCA9x-63" value="PROD Env." style="points=[[0,0],[0.25,0],[0.5,0],[0.75,0],[1,0],[1,0.25],[1,0.5],[1,0.75],[1,1],[0.75,1],[0.5,1],[0.25,1],[0,1],[0,0.75],[0,0.5],[0,0.25]];outlineConnect=0;gradientColor=none;html=1;whiteSpace=wrap;fontSize=12;fontStyle=0;container=1;pointerEvents=0;collapsible=0;recursiveResize=0;shape=mxgraph.aws4.group;grIcon=mxgraph.aws4.group_account;strokeColor=#CD2264;fillColor=default;verticalAlign=top;align=left;spacingLeft=30;fontColor=#CD2264;dashed=0;" vertex="1" parent="fd3qkdTBJXq_yaIZCA9x-35">
          <mxGeometry x="200" y="307.5" width="110" height="130" as="geometry" />
        </mxCell>
        <mxCell id="fd3qkdTBJXq_yaIZCA9x-64" value="PROD Env." style="points=[[0,0],[0.25,0],[0.5,0],[0.75,0],[1,0],[1,0.25],[1,0.5],[1,0.75],[1,1],[0.75,1],[0.5,1],[0.25,1],[0,1],[0,0.75],[0,0.5],[0,0.25]];outlineConnect=0;gradientColor=none;html=1;whiteSpace=wrap;fontSize=12;fontStyle=0;container=1;pointerEvents=0;collapsible=0;recursiveResize=0;shape=mxgraph.aws4.group;grIcon=mxgraph.aws4.group_account;strokeColor=#CD2264;fillColor=default;verticalAlign=top;align=left;spacingLeft=30;fontColor=#CD2264;dashed=0;" vertex="1" parent="fd3qkdTBJXq_yaIZCA9x-35">
          <mxGeometry x="190" y="297.5" width="110" height="130" as="geometry" />
        </mxCell>
        <mxCell id="fd3qkdTBJXq_yaIZCA9x-65" value="PROD&lt;div&gt;Bemido&lt;br&gt;Account&lt;/div&gt;" style="points=[[0,0],[0.25,0],[0.5,0],[0.75,0],[1,0],[1,0.25],[1,0.5],[1,0.75],[1,1],[0.75,1],[0.5,1],[0.25,1],[0,1],[0,0.75],[0,0.5],[0,0.25]];outlineConnect=0;gradientColor=none;html=1;whiteSpace=wrap;fontSize=12;fontStyle=0;container=1;pointerEvents=0;collapsible=0;recursiveResize=0;shape=mxgraph.aws4.group;grIcon=mxgraph.aws4.group_account;strokeColor=#CD2264;fillColor=default;verticalAlign=top;align=left;spacingLeft=30;fontColor=#CD2264;dashed=0;" vertex="1" parent="fd3qkdTBJXq_yaIZCA9x-35">
          <mxGeometry x="180" y="287.5" width="110" height="130" as="geometry" />
        </mxCell>
        <mxCell id="fd3qkdTBJXq_yaIZCA9x-40" value="" style="shape=flexArrow;endArrow=classic;html=1;rounded=0;fillColor=#009999;strokeColor=none;" edge="1" parent="fd3qkdTBJXq_yaIZCA9x-65">
          <mxGeometry width="50" height="50" relative="1" as="geometry">
            <mxPoint x="54.90000000000009" y="220" as="sourcePoint" />
            <mxPoint x="54.5" y="100" as="targetPoint" />
          </mxGeometry>
        </mxCell>
        <mxCell id="fd3qkdTBJXq_yaIZCA9x-41" value="" style="verticalLabelPosition=bottom;verticalAlign=top;html=1;shape=mxgraph.basic.rect;fillColor2=none;strokeWidth=1;size=20;indent=5;strokeColor=#FF3621;" vertex="1" parent="1">
          <mxGeometry x="400" y="502.5" width="170" height="467.5" as="geometry" />
        </mxCell>
        <mxCell id="fd3qkdTBJXq_yaIZCA9x-42" value="" style="shape=image;verticalLabelPosition=bottom;labelBackgroundColor=default;verticalAlign=top;aspect=fixed;imageAspect=0;image=data:image/svg+xml,PHN2ZyB4bWxuczp4bGluaz0iaHR0cDovL3d3dy53My5vcmcvMTk5OS94bGluayIgeG1sbnM9Imh0dHA6Ly93d3cudzMub3JnLzIwMDAvc3ZnIiB2ZXJzaW9uPSIxLjEiIHZpZXdCb3g9IjAgMCAzOTUgNDI4IiBoZWlnaHQ9IjQyOHB4IiB3aWR0aD0iMzk1cHgiPiYjeGE7ICAgIDx0aXRsZT5kYi1uYXYtbG9nby1zdGFja2VkLXdoaXRlLWRlc2t0b3A8L3RpdGxlPiYjeGE7ICAgIDxnIGZpbGwtcnVsZT0iZXZlbm9kZCIgZmlsbD0ibm9uZSIgc3Ryb2tlLXdpZHRoPSIxIiBzdHJva2U9Im5vbmUiIGlkPSJQYWdlLTEiPiYjeGE7ICAgICAgICA8ZyBmaWxsLXJ1bGU9Im5vbnplcm8iIGZpbGw9IiNGRjM2MjEiIGlkPSJkYi1uYXYtbG9nby1zdGFja2VkLXdoaXRlLWRlc2t0b3AiPiYjeGE7ICAgICAgICAgICAgPHBvbHlnb24gcG9pbnRzPSIzNzQuMjA5NzA4IDE3Ni4yMDEwOTEgMTk3LjIwMjQ5MSAyNzYuMjA2MDEyIDguOTA5NzIxMyAxNjkuNjUzMDE1IDAgMTc0LjQxNDQ4NCAwIDI1MS44MDAzMTcgMTk3LjIwMjQ5MSAzNjMuNzExNzI2IDM3NC4yMDk3MDggMjYzLjcwNTM5NyAzNzQuMjA5NzA4IDMwNC43NzkwNDggMTk3LjIwMjQ5MSA0MDQuNzg1Mzc2IDguOTA5NzIxMyAyOTguMjMwOTcyIDAgMzAyLjk5Mzg0OSAwIDMxNi4wODk5OTkgMTk3LjIwMjQ5MSA0MjggMzk1IDMxNi4wODk5OTkgMzk1IDIzOC43MDQxNjYgMzg2LjA5MDI3OSAyMzMuOTQxMjkgMTk3LjIwMjQ5MSAzNDAuNDk1Njk0IDIwLjc4ODg3ODYgMjQwLjQ4OTM2NSAyMC43ODg4Nzg2IDIwMC4wMTEyNSAxOTcuMjAyNDkxIDI5OS40MjIwNDMgMzk1IDE4Ny41MTA2MzUgMzk1IDExMS4zMTU4NzMgMzg0LjkwMTY1NiAxMDUuOTU4NDQ2IDE5Ny4yMDI0OTEgMjExLjkxNjMyOSAzMC4yOTIyMDQ0IDExNy4yNjg1NTMgMTk3LjIwMjQ5MSAyMy4yMTU2MDkxIDMzNS4wMDYzNjkgMTAwLjYwMTAyIDM0Ny40ODA1NDQgOTQuMDUyOTQ0NCAzNDcuNDgwNTQ0IDg0LjUyODU5OTIgMTk3LjIwMjQ5MSAwIDAgMTExLjMxNTg3MyAwIDEyMy4yMjEzNzUgMTk3LjIwMjQ5MSAyMzUuMTMyMzYxIDM3NC4yMDk3MDggMTM1LjEyNjczNiIgaWQ9IlBhdGgiLz4mI3hhOyAgICAgICAgPC9nPiYjeGE7ICAgIDwvZz4mI3hhOzwvc3ZnPg==;" vertex="1" parent="1">
          <mxGeometry x="400" y="502.5" width="23.08" height="25" as="geometry" />
        </mxCell>
        <mxCell id="fd3qkdTBJXq_yaIZCA9x-43" value="Datab&lt;span style=&quot;background-color: initial;&quot;&gt;ricks Account&lt;/span&gt;" style="text;html=1;align=center;verticalAlign=middle;whiteSpace=wrap;rounded=0;fontColor=#FF3621;" vertex="1" parent="1">
          <mxGeometry x="430" y="500" width="110" height="30" as="geometry" />
        </mxCell>
        <mxCell id="fd3qkdTBJXq_yaIZCA9x-44" value="" style="rounded=0;whiteSpace=wrap;html=1;" vertex="1" parent="1">
          <mxGeometry x="440" y="592.5" width="110" height="130" as="geometry" />
        </mxCell>
        <mxCell id="fd3qkdTBJXq_yaIZCA9x-45" value="" style="rounded=0;whiteSpace=wrap;html=1;" vertex="1" parent="1">
          <mxGeometry x="430" y="582.5" width="110" height="130" as="geometry" />
        </mxCell>
        <mxCell id="fd3qkdTBJXq_yaIZCA9x-46" value="" style="rounded=0;whiteSpace=wrap;html=1;" vertex="1" parent="1">
          <mxGeometry x="420" y="572.5" width="110" height="130" as="geometry" />
        </mxCell>
        <mxCell id="fd3qkdTBJXq_yaIZCA9x-47" value="PROD&lt;div&gt;B-FLEXION&lt;br&gt;&lt;div&gt;Workspace&lt;/div&gt;&lt;/div&gt;" style="text;html=1;align=left;verticalAlign=middle;whiteSpace=wrap;rounded=0;" vertex="1" parent="1">
          <mxGeometry x="424" y="582.5" width="110" height="30" as="geometry" />
        </mxCell>
        <mxCell id="fd3qkdTBJXq_yaIZCA9x-48" value="Third party systems" style="rounded=0;whiteSpace=wrap;html=1;" vertex="1" parent="1">
          <mxGeometry x="220" y="410" width="110" height="60" as="geometry" />
        </mxCell>
        <mxCell id="fd3qkdTBJXq_yaIZCA9x-49" value="" style="rounded=0;whiteSpace=wrap;html=1;strokeColor=#29b5e8;" vertex="1" parent="1">
          <mxGeometry x="600" y="502.5" width="190" height="467.5" as="geometry" />
        </mxCell>
        <mxCell id="fd3qkdTBJXq_yaIZCA9x-50" value="" style="shape=image;verticalLabelPosition=bottom;labelBackgroundColor=default;verticalAlign=top;aspect=fixed;imageAspect=0;image=data:image/svg+xml,PHN2ZyB4bWxucz0iaHR0cDovL3d3dy53My5vcmcvMjAwMC9zdmciIHZpZXdCb3g9IjAgMCAxNDYuMzYgMTM5LjE2IiBkYXRhLW5hbWU9IkxheWVyIDEiIGlkPSJMYXllcl8xIj48ZGVmcz48c3R5bGU+LmNscy0xe2ZpbGw6IzI5YjVlODtmaWxsLXJ1bGU6ZXZlbm9kZDt9PC9zdHlsZT48L2RlZnM+PHBhdGggZD0iTTEzNC44MSw2MC4xbC0xNi40Nyw5LjQ5TDEzNC44MSw3OWE4LjY1LDguNjUsMCwxLDEtOC42NywxNWwtMjkuNTEtMTdhOC42OCw4LjY4LDAsMCwxLTQuMzMtNy43NSw4LjQ4LDguNDgsMCwwLDEsLjMxLTIsOC42OCw4LjY4LDAsMCwxLDQtNS4xOWwyOS41MS0xNi45NEE4LjY5LDguNjksMCwwLDEsMTM4LDQ4LjMxLDguNTgsOC41OCwwLDAsMSwxMzQuODEsNjAuMVptLTE1LjU5LDQ2TDg5LjcyLDg5LjEzYTguNzIsOC43MiwwLDAsMC0xMy4wNiw3LjQ4djMzLjlhOC42OSw4LjY5LDAsMCwwLDE3LjM3LDB2LTE5TDExMC41NCwxMjFhOC42Niw4LjY2LDAsMSwwLDguNjgtMTVabS0zNC0zMy4xNkw3Mi45Miw4NS4wOWEyLjQ0LDIuNDQsMCwwLDEtMS41NC42NUg2Ny43N2EyLjUxLDIuNTEsMCwwLDEtMS41NC0uNjVMNTQsNzIuOWEyLjQ1LDIuNDUsMCwwLDEtLjY0LTEuNTJ2LTMuNkEyLjUsMi41LDAsMCwxLDU0LDY2LjI1TDY2LjIzLDU0LjA2YTIuNSwyLjUsMCwwLDEsMS41NC0uNjRoMy42MWEyLjQ1LDIuNDUsMCwwLDEsMS41NC42NEw4NS4xOCw2Ni4yNWEyLjQ5LDIuNDksMCwwLDEsLjYzLDEuNTN2My42QTIuNDQsMi40NCwwLDAsMSw4NS4xOCw3Mi45Wm0tOS44LTMuMzhBMi41OSwyLjU5LDAsMCwwLDc0LjczLDY4bC0zLjU1LTMuNTFhMi41MSwyLjUxLDAsMCwwLTEuNTQtLjY0aC0uMTNhMi40NiwyLjQ2LDAsMCwwLTEuNTMuNjRMNjQuNDMsNjhhMi41MSwyLjUxLDAsMCwwLS42MywxLjU1di4xM2EyLjQxLDIuNDEsMCwwLDAsLjYzLDEuNTJMNjgsNzQuN2EyLjQ4LDIuNDgsMCwwLDAsMS41My42NGguMTNhMi41MSwyLjUxLDAsMCwwLDEuNTQtLjY0bDMuNTUtMy41M2EyLjQ5LDIuNDksMCwwLDAsLjY1LTEuNTJaTTE5LjkzLDMzLjA4LDQ5LjQ0LDUwYTguNzMsOC43MywwLDAsMCwxMy4wNy03LjQ5VjguNjRhOC42OSw4LjY5LDAsMCwwLTE3LjM3LDB2MTlsLTE2LjUzLTkuNWE4LjY1LDguNjUsMCwxLDAtOC42OCwxNVpNODQuNjksNTEuMTZhOC42NCw4LjY0LDAsMCwwLDUtMS4xM2wyOS41LTE3YTguNjUsOC42NSwwLDEsMC04LjY4LTE1TDk0LDI3LjYxdi0xOWE4LjY5LDguNjksMCwwLDAtMTcuMzcsMHYzMy45QTguNjYsOC42NiwwLDAsMCw4NC42OSw1MS4xNlpNNTQuNDgsODhhOC41OCw4LjU4LDAsMCwwLTUsMS4xM0wxOS45MywxMDYuMDZhOC42Niw4LjY2LDAsMSwwLDguNjgsMTVsMTYuNTMtOS40OXYxOWE4LjY5LDguNjksMCwwLDAsMTcuMzcsMFY5Ni42MUE4LjY1LDguNjUsMCwwLDAsNTQuNDgsODhabS04LTE1Ljg3YTguNjEsOC42MSwwLDAsMC00LTEwTDEzLDQ1LjE0QTguNjksOC42OSwwLDAsMCwxLjE3LDQ4LjMxLDguNTksOC41OSwwLDAsMCw0LjM1LDYwLjFsMTYuNDcsOS40OUw0LjM1LDc5QTguNjUsOC42NSwwLDEsMCwxMyw5NGwyOS40OC0xN0E4LjU5LDguNTksMCwwLDAsNDYuNDcsNzIuMTNabTkzLjE1LTU2LjIySDEzOC4zdjEuNjNoMS4zMmMuNjEsMCwxLS4yOCwxLS44UzE0MC4yNiwxNS45MSwxMzkuNjIsMTUuOTFabS0yLjk0LTEuNWgzYzEuNjIsMCwyLjcuODksMi43LDIuMjdhMi4xNiwyLjE2LDAsMCwxLTEuMDgsMS45bDEuMTcsMS42OHYuMzRoLTEuNjlMMTM5LjYyLDE5SDEzOC4zVjIwLjZoLTEuNjJabTguMywzLjIyYTUuNDgsNS40OCwwLDAsMC01LjU4LTUuODNjLTMuMzEsMC01LjUxLDIuMzktNS41MSw1LjgzLDAsMy4yOCwyLjIsNS44Miw1LjUxLDUuODJBNS40Nyw1LjQ3LDAsMCwwLDE0NSwxNy42M1ptMS4zOCwwYzAsMy44OS0yLjYsNy4xNC03LDcuMTRzLTYuODktMy4yOC02Ljg5LTcuMTQsMi41Ny03LjE0LDYuODktNy4xNFMxNDYuMzYsMTMuNzMsMTQ2LjM2LDE3LjYzWiIgY2xhc3M9ImNscy0xIi8+PC9zdmc+;" vertex="1" parent="1">
          <mxGeometry x="600" y="503" width="26.26" height="25" as="geometry" />
        </mxCell>
        <mxCell id="fd3qkdTBJXq_yaIZCA9x-51" value="Snowflake Organisation" style="text;html=1;align=left;verticalAlign=middle;whiteSpace=wrap;rounded=0;fontColor=#29b5e8;" vertex="1" parent="1">
          <mxGeometry x="632" y="500.5" width="140" height="30" as="geometry" />
        </mxCell>
        <mxCell id="fd3qkdTBJXq_yaIZCA9x-52" value="" style="rounded=0;whiteSpace=wrap;html=1;strokeColor=#29b5e8;" vertex="1" parent="1">
          <mxGeometry x="610" y="542.5" width="160" height="197.5" as="geometry" />
        </mxCell>
        <mxCell id="fd3qkdTBJXq_yaIZCA9x-53" value="Snowflake Account" style="text;html=1;align=left;verticalAlign=middle;whiteSpace=wrap;rounded=0;fontColor=#29b5e8;" vertex="1" parent="1">
          <mxGeometry x="620" y="542.5" width="140" height="30" as="geometry" />
        </mxCell>
        <mxCell id="fd3qkdTBJXq_yaIZCA9x-54" value="" style="rounded=0;whiteSpace=wrap;html=1;strokeColor=#29b5e8;" vertex="1" parent="1">
          <mxGeometry x="645" y="592.5" width="110" height="130" as="geometry" />
        </mxCell>
        <mxCell id="fd3qkdTBJXq_yaIZCA9x-55" value="" style="rounded=0;whiteSpace=wrap;html=1;strokeColor=#29b5e8;" vertex="1" parent="1">
          <mxGeometry x="635" y="582.5" width="110" height="130" as="geometry" />
        </mxCell>
        <mxCell id="fd3qkdTBJXq_yaIZCA9x-56" value="" style="rounded=0;whiteSpace=wrap;html=1;strokeColor=#29b5e8;" vertex="1" parent="1">
          <mxGeometry x="625" y="572.5" width="110" height="130" as="geometry" />
        </mxCell>
        <mxCell id="fd3qkdTBJXq_yaIZCA9x-57" value="PROD&lt;div&gt;B-FLEXION&lt;/div&gt;&lt;div&gt;Databases&lt;/div&gt;" style="text;html=1;align=left;verticalAlign=middle;whiteSpace=wrap;rounded=0;fontColor=#29b5e8;" vertex="1" parent="1">
          <mxGeometry x="630.74" y="582.5" width="110" height="30" as="geometry" />
        </mxCell>
        <mxCell id="fd3qkdTBJXq_yaIZCA9x-58" value="" style="shape=flexArrow;endArrow=classic;html=1;rounded=0;fillColor=#009999;strokeColor=none;" edge="1" parent="1">
          <mxGeometry width="50" height="50" relative="1" as="geometry">
            <mxPoint x="320.0000000000001" y="637" as="sourcePoint" />
            <mxPoint x="650" y="637" as="targetPoint" />
          </mxGeometry>
        </mxCell>
        <mxCell id="fd3qkdTBJXq_yaIZCA9x-59" value="" style="shape=cylinder3;whiteSpace=wrap;html=1;boundedLbl=1;backgroundOutline=1;size=5.639198303222656;strokeColor=#29b5e8;" vertex="1" parent="1">
          <mxGeometry x="697" y="612.5" width="30" height="40" as="geometry" />
        </mxCell>
        <mxCell id="fd3qkdTBJXq_yaIZCA9x-60" value="" style="shape=cylinder3;whiteSpace=wrap;html=1;boundedLbl=1;backgroundOutline=1;size=5.639198303222656;strokeColor=#29b5e8;" vertex="1" parent="1">
          <mxGeometry x="680" y="630" width="30" height="40" as="geometry" />
        </mxCell>
        <mxCell id="fd3qkdTBJXq_yaIZCA9x-61" value="" style="shape=cylinder3;whiteSpace=wrap;html=1;boundedLbl=1;backgroundOutline=1;size=5.639198303222656;strokeColor=#29b5e8;" vertex="1" parent="1">
          <mxGeometry x="665" y="652.5" width="30" height="40" as="geometry" />
        </mxCell>
        <mxCell id="fd3qkdTBJXq_yaIZCA9x-131" value="" style="rounded=0;whiteSpace=wrap;html=1;" vertex="1" parent="1">
          <mxGeometry x="440" y="810" width="110" height="130" as="geometry" />
        </mxCell>
        <mxCell id="fd3qkdTBJXq_yaIZCA9x-132" value="" style="rounded=0;whiteSpace=wrap;html=1;" vertex="1" parent="1">
          <mxGeometry x="430" y="800" width="110" height="130" as="geometry" />
        </mxCell>
        <mxCell id="fd3qkdTBJXq_yaIZCA9x-133" value="" style="rounded=0;whiteSpace=wrap;html=1;" vertex="1" parent="1">
          <mxGeometry x="420" y="790" width="110" height="130" as="geometry" />
        </mxCell>
        <mxCell id="fd3qkdTBJXq_yaIZCA9x-134" value="PROD&lt;div&gt;Bemido&lt;br&gt;&lt;div&gt;Workspace&lt;/div&gt;&lt;/div&gt;" style="text;html=1;align=left;verticalAlign=middle;whiteSpace=wrap;rounded=0;" vertex="1" parent="1">
          <mxGeometry x="423.08" y="800" width="110" height="30" as="geometry" />
        </mxCell>
        <mxCell id="fd3qkdTBJXq_yaIZCA9x-146" value="" style="rounded=0;whiteSpace=wrap;html=1;strokeColor=#29b5e8;" vertex="1" parent="1">
          <mxGeometry x="610" y="760" width="160" height="197.5" as="geometry" />
        </mxCell>
        <mxCell id="fd3qkdTBJXq_yaIZCA9x-147" value="Snowflake Account" style="text;html=1;align=left;verticalAlign=middle;whiteSpace=wrap;rounded=0;fontColor=#29b5e8;" vertex="1" parent="1">
          <mxGeometry x="620" y="760" width="140" height="30" as="geometry" />
        </mxCell>
        <mxCell id="fd3qkdTBJXq_yaIZCA9x-148" value="" style="rounded=0;whiteSpace=wrap;html=1;strokeColor=#29b5e8;" vertex="1" parent="1">
          <mxGeometry x="645" y="810" width="110" height="130" as="geometry" />
        </mxCell>
        <mxCell id="fd3qkdTBJXq_yaIZCA9x-149" value="" style="rounded=0;whiteSpace=wrap;html=1;strokeColor=#29b5e8;" vertex="1" parent="1">
          <mxGeometry x="635" y="800" width="110" height="130" as="geometry" />
        </mxCell>
        <mxCell id="fd3qkdTBJXq_yaIZCA9x-150" value="" style="rounded=0;whiteSpace=wrap;html=1;strokeColor=#29b5e8;" vertex="1" parent="1">
          <mxGeometry x="625" y="790" width="110" height="130" as="geometry" />
        </mxCell>
        <mxCell id="fd3qkdTBJXq_yaIZCA9x-151" value="PROD&lt;div&gt;Bemido&lt;/div&gt;&lt;div&gt;Databases&lt;/div&gt;" style="text;html=1;align=left;verticalAlign=middle;whiteSpace=wrap;rounded=0;fontColor=#29b5e8;" vertex="1" parent="1">
          <mxGeometry x="630.74" y="800" width="110" height="30" as="geometry" />
        </mxCell>
        <mxCell id="fd3qkdTBJXq_yaIZCA9x-152" value="" style="shape=cylinder3;whiteSpace=wrap;html=1;boundedLbl=1;backgroundOutline=1;size=5.639198303222656;strokeColor=#29b5e8;" vertex="1" parent="1">
          <mxGeometry x="697" y="830" width="30" height="40" as="geometry" />
        </mxCell>
        <mxCell id="fd3qkdTBJXq_yaIZCA9x-153" value="" style="shape=cylinder3;whiteSpace=wrap;html=1;boundedLbl=1;backgroundOutline=1;size=5.639198303222656;strokeColor=#29b5e8;" vertex="1" parent="1">
          <mxGeometry x="680" y="847.5" width="30" height="40" as="geometry" />
        </mxCell>
        <mxCell id="fd3qkdTBJXq_yaIZCA9x-154" value="" style="shape=cylinder3;whiteSpace=wrap;html=1;boundedLbl=1;backgroundOutline=1;size=5.639198303222656;strokeColor=#29b5e8;" vertex="1" parent="1">
          <mxGeometry x="665" y="870" width="30" height="40" as="geometry" />
        </mxCell>
        <mxCell id="fd3qkdTBJXq_yaIZCA9x-156" value="" style="shape=flexArrow;endArrow=classic;html=1;rounded=0;fillColor=#009999;strokeColor=none;" edge="1" parent="1">
          <mxGeometry width="50" height="50" relative="1" as="geometry">
            <mxPoint x="320.0000000000001" y="858.25" as="sourcePoint" />
            <mxPoint x="650" y="858.25" as="targetPoint" />
          </mxGeometry>
        </mxCell>
        <mxCell id="fd3qkdTBJXq_yaIZCA9x-157" value="Third party systems" style="rounded=0;whiteSpace=wrap;html=1;" vertex="1" parent="1">
          <mxGeometry x="220" y="1010" width="110" height="60" as="geometry" />
        </mxCell>
        <mxCell id="fd3qkdTBJXq_yaIZCA9x-158" value="" style="shape=flexArrow;endArrow=classic;html=1;rounded=0;fillColor=#009999;strokeColor=none;" edge="1" parent="1">
          <mxGeometry width="50" height="50" relative="1" as="geometry">
            <mxPoint x="274.9000000000001" y="470" as="sourcePoint" />
            <mxPoint x="274.5" y="590" as="targetPoint" />
          </mxGeometry>
        </mxCell>
        <mxCell id="fd3qkdTBJXq_yaIZCA9x-159" value="" style="shape=flexArrow;endArrow=classic;html=1;rounded=0;fillColor=#009999;strokeColor=none;" edge="1" parent="1">
          <mxGeometry width="50" height="50" relative="1" as="geometry">
            <mxPoint x="679.9000000000001" y="702.5" as="sourcePoint" />
            <mxPoint x="680" y="800" as="targetPoint" />
          </mxGeometry>
        </mxCell>
      </root>
    </mxGraphModel>
  </diagram>
</mxfile>
